<svg width="21" height="20" viewBox="0 0 21 20" fill="none" xmlns="http://www.w3.org/2000/svg">
<path d="M14.1016 15.3125V16.875C14.1016 18.5982 12.6997 20 10.9766 20H3.125C1.40182 20 0 18.5982 0 16.875V3.125C0 1.40182 1.40182 0 3.125 0H10.9766C12.6997 0 14.1016 1.40182 14.1016 3.125V4.6875C14.1016 5.11902 13.7518 5.46875 13.3203 5.46875C12.8888 5.46875 12.5391 5.11902 12.5391 4.6875V3.125C12.5391 2.26349 11.8381 1.5625 10.9766 1.5625H3.125C2.26349 1.5625 1.5625 2.26349 1.5625 3.125V16.875C1.5625 17.7365 2.26349 18.4375 3.125 18.4375H10.9766C11.8381 18.4375 12.5391 17.7365 12.5391 16.875V15.3125C12.5391 14.881 12.8888 14.5312 13.3203 14.5312C13.7518 14.5312 14.1016 14.881 14.1016 15.3125Z" fill="white"/>
<path d="M10.2494 7.01013L8.5 8.75955C7.73843 9.52112 7.73843 10.7601 8.5 11.5217L10.2494 13.2711C10.402 13.4237 10.6019 13.5 10.8019 13.5C11.0018 13.5 11.2017 13.4237 11.3543 13.2711C11.6595 12.9661 11.6595 12.4714 11.3543 12.1664L10.11 10.9219H19.4904C19.922 10.9219 20.2717 10.5721 20.2717 10.1406C20.2717 9.70911 19.922 9.35938 19.4904 9.35938H10.11L11.3543 8.11487C11.6595 7.80984 11.6595 7.31516 11.3543 7.01013C11.0493 6.70496 10.5546 6.70496 10.2494 7.01013Z" fill="white"/>
</svg>
