<svg width="34" height="21" viewBox="0 0 34 21" fill="none" xmlns="http://www.w3.org/2000/svg">
<path d="M16.8114 18.4776L16.5107 18.7041L16.2099 18.4776L1.87345 7.68125C1.55635 7.45305 1.01614 7.45373 0.700336 7.68339C0.554192 7.78968 0.52013 7.8961 0.518612 7.96178C0.517128 8.02598 0.544788 8.12838 0.679531 8.23459L15.9136 19.707C16.0606 19.8176 16.275 19.8864 16.5107 19.8864C16.7463 19.8864 16.9606 19.8177 17.1076 19.707C17.1076 19.707 17.1077 19.707 17.1077 19.707L32.3455 8.23181C32.4871 8.12513 32.5181 8.02024 32.5181 7.95512C32.5181 7.89 32.4871 7.78508 32.3454 7.67837C32.1984 7.56772 31.9841 7.49902 31.7486 7.49902C31.5129 7.49902 31.2986 7.56775 31.1516 7.67844C31.1516 7.67844 31.1516 7.67845 31.1516 7.67846L16.8114 18.4776Z" fill="#2EAFFF" stroke="#2EAFFF"/>
<path d="M16.8119 11.4786L16.5111 11.7051L16.2104 11.4786L1.87394 0.682224C1.55684 0.454023 1.01662 0.454708 0.700825 0.684365C0.55468 0.790657 0.520618 0.897081 0.5191 0.962755C0.517616 1.02696 0.545277 1.12936 0.680019 1.23557L15.9141 12.7079C16.0611 12.8186 16.2755 12.8873 16.5111 12.8873C16.7468 12.8873 16.9611 12.8186 17.1081 12.708C17.1081 12.708 17.1081 12.7079 17.1082 12.7079L32.346 1.23279C32.4876 1.12611 32.5186 1.02122 32.5186 0.9561C32.5186 0.890975 32.4876 0.786058 32.3459 0.679348C32.1989 0.568698 31.9846 0.5 31.749 0.5C31.5134 0.5 31.2991 0.568725 31.1521 0.679413C31.1521 0.67942 31.152 0.679427 31.152 0.679435L16.8119 11.4786Z" fill="#2EAFFF" stroke="#2EAFFF"/>
</svg>
