<svg width="24" height="24" viewBox="0 0 24 24" fill="none" xmlns="http://www.w3.org/2000/svg">
<g clip-path="url(#clip0)">
<path d="M18.039 8.47025C18.0063 8.47025 1.69222 8.47025 1.69222 8.47025L5.12937 4.61774C5.35226 4.3679 5.33042 3.98469 5.08057 3.7618C4.83082 3.53896 4.44753 3.56071 4.22464 3.8106L0.353613 8.14934C-0.117902 8.678 -0.117855 9.47506 0.353659 10.0036L4.22468 14.3424C4.3445 14.4767 4.51048 14.545 4.67721 14.545C4.82084 14.545 4.96498 14.4942 5.08062 14.3912C5.33046 14.1683 5.35226 13.7851 5.12942 13.5352L1.69227 9.68267C1.69227 9.68267 18.0063 9.68267 18.0391 9.68267C20.6574 9.68267 22.7875 11.8129 22.7875 14.4311C22.7875 17.0493 20.6574 19.1795 18.0391 19.1795H15.1525C14.8177 19.1795 14.5463 19.451 14.5463 19.7858C14.5463 20.1205 14.8177 20.392 15.1525 20.392H18.0391C21.326 20.392 24 17.718 24 14.4311C23.9999 11.1443 21.3259 8.47025 18.039 8.47025Z" fill="#2EAFFF"/>
</g>
<defs>
<clipPath id="clip0">
<rect width="24" height="24" fill="white"/>
</clipPath>
</defs>
</svg>
