<svg width="10" height="10" viewBox="0 0 10 10" fill="none" xmlns="http://www.w3.org/2000/svg">
<path d="M5 0C2.23858 0 0 2.23858 0 5C0 7.76142 2.23858 10 5 10C7.76142 10 10 7.76142 10 5C9.99707 2.23981 7.76021 0.00295062 5 0ZM5 9.28572C2.63306 9.28572 0.71428 7.36694 0.71428 5C0.71428 2.63306 2.63306 0.71428 5 0.71428C7.36694 0.71428 9.28572 2.63306 9.28572 5C9.28317 7.36589 7.36589 9.28317 5 9.28572Z" fill="#706A6A"/>
<path d="M4.99999 1.78564C4.80274 1.78564 4.64284 1.94554 4.64284 2.14279V4.6428H2.14286C1.9456 4.6428 1.78571 4.8027 1.78571 4.99995C1.78571 5.1972 1.9456 5.35708 2.14286 5.35708H4.99999C5.19724 5.35708 5.35714 5.19718 5.35714 4.99993V2.14279C5.35714 1.94554 5.19724 1.78564 4.99999 1.78564Z" fill="#706A6A"/>
</svg>
