<svg width="43" height="43" viewBox="0 0 43 43" fill="none" xmlns="http://www.w3.org/2000/svg">
<g clip-path="url(#clip0)">
<path d="M31.7353 11.312L18.4851 10.8493C18.14 10.8373 17.8508 11.107 17.8388 11.4521C17.8267 11.7971 18.0965 12.0864 18.4415 12.0984L30.1838 12.5085L10.2608 31.0869C10.0082 31.3225 9.99437 31.7176 10.23 31.9703C10.4656 32.223 10.8607 32.2368 11.1134 32.0011L31.0363 13.4227L30.6262 25.1649C30.6142 25.51 30.8839 25.7993 31.229 25.8113C31.4015 25.8173 31.5601 25.7529 31.677 25.6438C31.794 25.5348 31.8693 25.3811 31.8754 25.2085L32.3381 11.9583C32.3501 11.6133 32.0804 11.3241 31.7353 11.312Z" fill="white"/>
</g>
<defs>
<clipPath id="clip0">
<rect width="30" height="30" fill="white" transform="translate(0 21) rotate(-43)"/>
</clipPath>
</defs>
</svg>
