<svg width="30" height="30" viewBox="0 0 30 30" fill="none" xmlns="http://www.w3.org/2000/svg">
<path d="M25.6066 4.39336C22.7735 1.56023 19.0066 0 15 0C10.9933 0 7.22648 1.56029 4.39336 4.39336C1.56029 7.22648 0 10.9934 0 15C0 19.0066 1.56029 22.7735 4.39336 25.6066C7.22648 28.4397 10.9934 30 15 30C19.0066 30 22.7735 28.4397 25.6066 25.6066C28.4397 22.7735 30 19.0066 30 15C30 10.9934 28.4397 7.22654 25.6066 4.39336ZM15 28.2422C7.69822 28.2422 1.75781 22.3018 1.75781 15C1.75781 7.69822 7.69822 1.75781 15 1.75781C22.3018 1.75781 28.2422 7.69822 28.2422 15C28.2422 22.3018 22.3018 28.2422 15 28.2422Z" fill="#DCE6F0"/>
<path d="M24.7119 15C24.7119 20.3552 20.3552 24.7119 15 24.7119V26.4697C21.3244 26.4697 26.4697 21.3244 26.4697 15H24.7119Z" fill="#DCE6F0"/>
<path d="M15 5.28809V3.53027C8.67563 3.53027 3.53027 8.67557 3.53027 15H5.28809C5.28809 9.64482 9.64482 5.28809 15 5.28809Z" fill="#DCE6F0"/>
<path d="M17.644 17.6441H22.0568V12.356H17.644V7.94318H12.3559V12.356H7.94312V17.6441H12.3559V22.0569H17.644V17.6441ZM15.8862 20.2991H14.1137V15.8863H9.70092V14.1139H14.1137V9.70104H15.8862V14.1139H20.299V15.8863H15.8862V20.2991Z" fill="#EE2222"/>
</svg>
