<svg width="4" height="24" viewBox="0 0 4 24" fill="none" xmlns="http://www.w3.org/2000/svg">
<path d="M3.75635 0.227324C3.89828 0.37272 3.97501 0.568887 3.96924 0.771402L3.47363 16.3333C3.46325 16.7412 3.12861 17.0666 2.72069 17.0666H1.24886C0.839788 17.0666 0.506302 16.7418 0.495917 16.3333L0.000303349 0.771402C-0.0054663 0.56831 0.0712697 0.37272 0.213203 0.227324C0.355136 0.0825063 0.548998 0 0.752089 0H3.21746C3.42055 0.000576965 3.61441 0.0825063 3.75635 0.227324ZM3.93751 20.4292V23.2476C3.93751 23.6631 3.60056 24 3.18457 24H0.784399C0.368407 24 0.0314599 23.6631 0.0314599 23.2476V20.4292C0.0314599 20.0138 0.368407 19.6768 0.784399 19.6768H3.18457C3.60056 19.6774 3.93751 20.0143 3.93751 20.4292Z" fill="#EE2222"/>
</svg>
