<svg width="30" height="30" viewBox="0 0 30 30" fill="none" xmlns="http://www.w3.org/2000/svg">
<path d="M23.4363 23.5794C23.4374 23.5166 23.4377 23.4536 23.4374 23.3905C23.4122 18.7936 19.662 15.0351 15.0651 15.0003C10.3829 14.9648 6.5625 18.7634 6.5625 23.4375C6.5625 23.5027 6.56326 23.5677 6.56473 23.6325C6.62889 26.4462 8.60537 28.8562 11.3343 29.5445C12.5248 29.8448 13.7558 30 15 30C16.2439 30 17.4747 29.8448 18.6651 29.5447C21.4132 28.8517 23.3893 26.4132 23.4363 23.5794Z" fill="#2F80ED"/>
<path d="M25.6062 4.39289C22.7896 1.57658 18.983 0 14.9999 0C10.9933 0 7.22648 1.56029 4.39336 4.39336C1.56023 7.22648 0 10.9933 0 15C0 18.536 1.25373 21.9694 3.53063 24.6682C3.79594 24.9823 4.07484 25.2863 4.36529 25.5782C4.5682 25.7821 4.91109 25.5981 4.85883 25.3152C4.74633 24.7062 4.6875 24.0786 4.6875 23.4375C4.6875 19.1584 7.30729 15.4798 11.0272 13.9211C11.2203 13.8401 11.2701 13.5868 11.1186 13.4422C10.0007 12.375 9.32039 10.8531 9.37846 9.17642C9.47988 6.24756 11.8494 3.86771 14.7778 3.75434C17.9802 3.63029 20.625 6.19963 20.625 9.375C20.625 10.973 19.955 12.4172 18.8813 13.4422C18.7299 13.5868 18.7798 13.8401 18.9728 13.9211C22.6927 15.4798 25.3125 19.1584 25.3125 23.4375C25.3125 24.0786 25.2537 24.7062 25.1411 25.3151C25.0888 25.598 25.4317 25.7821 25.6346 25.5782C25.9252 25.2862 26.2042 24.9821 26.4696 24.6678C28.7463 21.9694 30 18.536 30 15C30 10.9931 28.4396 7.22602 25.6062 4.39289Z" fill="#DCE6F0"/>
<path d="M15 13.125C17.0711 13.125 18.75 11.4461 18.75 9.375C18.75 7.30393 17.0711 5.625 15 5.625C12.9289 5.625 11.25 7.30393 11.25 9.375C11.25 11.4461 12.9289 13.125 15 13.125Z" fill="#2F80ED"/>
</svg>
