<svg width="0" height="0" class="hidden">

  <symbol viewBox="0 0 16 16" xmlns="http://www.w3.org/2000/svg" id="insta-svg">
    <path d="M11.669 0H4.33A4.336 4.336 0 0 0 0 4.331v7.338A4.336 4.336 0 0 0 4.331 16h7.338A4.336 4.336 0 0 0 16 11.669V4.331A4.336 4.336 0 0 0 11.669 0zM8 12.375A4.38 4.38 0 0 1 3.625 8 4.38 4.38 0 0 1 8 3.625 4.38 4.38 0 0 1 12.375 8 4.38 4.38 0 0 1 8 12.375zm4.48-7.718c-.713 0-1.293-.58-1.293-1.293s.58-1.293 1.293-1.293a1.294 1.294 0 0 1-.001 2.586z"
    ></path>
    <path d="M8 4.563A3.44 3.44 0 0 0 4.563 8 3.44 3.44 0 0 0 8 11.437 3.44 3.44 0 0 0 11.437 8 3.44 3.44 0 0 0 8 4.563zm4.48-1.553a.355.355 0 1 0 0 .71.355.355 0 0 0 0-.71z"></path>
  </symbol>

  <symbol viewBox="0 0 16 16" xmlns="http://www.w3.org/2000/svg" id="telegram-svg">
    <g clip-path="url(#clip0)">
      <path d="M6.278 10.12l-.265 3.723c.38 0 .543-.162.74-.358l1.775-1.696 3.679 2.694c.674.376 1.15.178 1.332-.621l2.414-11.315h.001c.214-.998-.36-1.388-1.018-1.143L.743 6.838c-.969.376-.954.916-.165 1.16l3.629 1.13 8.428-5.275c.397-.262.758-.117.461.146L6.278 10.12z"
      ></path>
    </g>
    <defs>
      <clipPath id="clip0">
        <path d="M0 0h16v16H0z"></path>
      </clipPath>
    </defs>
  </symbol>

  <symbol viewBox="0 0 16 16" xmlns="http://www.w3.org/2000/svg" id="facebook">
    <path d="M13.656 0H2.344A2.347 2.347 0 0 0 0 2.344v11.312A2.347 2.347 0 0 0 2.344 16h4.719v-5.656H5.188V7.53h1.875V5.625a2.816 2.816 0 0 1 2.812-2.813h2.844v2.813H9.875v1.906h2.844l-.469 2.813H9.875V16h3.781A2.347 2.347 0 0 0 16 13.656V2.344A2.347 2.347 0 0 0 13.656 0z"
     ></path>
  </symbol>

  <symbol viewBox="0 0 16 16" xmlns="http://www.w3.org/2000/svg" id="phone-svg">
    <g clip-path="url(#clip0)">
      <path d="M14.716 10.502c-.98 0-1.941-.153-2.853-.454-.446-.153-.995-.013-1.268.267l-1.799 1.358C6.71 10.56 5.424 9.275 4.326 7.204l1.318-1.752c.343-.342.465-.842.318-1.31a9.098 9.098 0 0 1-.456-2.858C5.506.576 4.93 0 4.222 0H1.284C.576 0 0 .576 0 1.284 0 9.398 6.602 16 14.716 16c.708 0 1.284-.576 1.284-1.284v-2.93c0-.708-.576-1.284-1.284-1.284z"
        ></path>
    </g>
    <defs>
      <clipPath id="clip0">
        <path fill="#fff" d="M0 0h16v16H0z"></path>
      </clipPath>
    </defs>
  </symbol>

  <symbol viewBox="0 0 200 200" xmlns="http://www.w3.org/2000/svg" id="card-clinick">
    <path d="M31.986 77.614a3.907 3.907 0 0 0 3.907-3.906v-5.071a3.907 3.907 0 0 0-7.813 0v5.07a3.906 3.906 0 0 0 3.906 3.907zm25.024 0a3.907 3.907 0 0 0 3.907-3.906v-5.071a3.907 3.907 0 0 0-7.813 0v5.07a3.906 3.906 0 0 0 3.907 3.907zm25.036 0a3.907 3.907 0 0 0 3.906-3.906v-5.071a3.907 3.907 0 0 0-7.813 0v5.07a3.906 3.906 0 0 0 3.907 3.907zm25.035 0a3.907 3.907 0 0 0 3.906-3.906v-5.071a3.906 3.906 0 0 0-7.812 0v5.07a3.906 3.906 0 0 0 3.906 3.907zm-75.095 22.511a3.907 3.907 0 0 0 3.907-3.906v-5.06a3.907 3.907 0 0 0-7.813 0v5.06a3.906 3.906 0 0 0 3.906 3.906zm25.024 0a3.907 3.907 0 0 0 3.907-3.906v-5.06a3.907 3.907 0 0 0-7.813 0v5.06a3.906 3.906 0 0 0 3.907 3.906zm25.036 0a3.907 3.907 0 0 0 3.906-3.906v-5.06a3.907 3.907 0 0 0-7.813 0v5.06a3.906 3.906 0 0 0 3.907 3.906zm25.035 0a3.906 3.906 0 0 0 3.906-3.906v-5.06a3.907 3.907 0 0 0-7.812 0v5.06a3.906 3.906 0 0 0 3.906 3.906z"
    ></path>
    <path d="M196.094 172.766h-2.782V88.745c0-4.364-3.55-7.915-7.914-7.915H132.38V53.702c3.119-1.726 5.237-5.05 5.237-8.86v-5.658c0-5.578-4.539-10.118-10.118-10.118H97.014v-4.841C97.014 10.867 86.14 0 72.778 0h-6.5C52.921 0 42.054 10.867 42.054 24.225v4.841H11.557c-5.578 0-10.118 4.54-10.118 10.118v5.658c0 3.81 2.118 7.134 5.238 8.86v119.064h-2.77A3.906 3.906 0 0 0 0 176.672v19.422A3.906 3.906 0 0 0 3.906 200h71.186a3.906 3.906 0 0 0 0-7.812H7.812v-11.609h184.376v11.609H110.17a3.906 3.906 0 0 0 0 7.812h85.924a3.906 3.906 0 0 0 3.906-3.906v-19.422a3.906 3.906 0 0 0-3.906-3.906zm-10.696-84.123c.045 0 .102.056.102.102v84.021h-14.433v-17.089h1.62a3.907 3.907 0 0 0 0-7.813h-28.424a3.906 3.906 0 0 0 0 7.813h1.619v17.089H132.38V88.643h53.018zm-22.143 67.033v17.09h-9.561v-17.09h9.561zM45.96 54.96h78.607v99.913H90.016v-12.307h6.502a3.907 3.907 0 0 0 0-7.812h-56.78a3.907 3.907 0 0 0 0 7.812h6.502v12.307H14.49V54.96h31.47zm8.092 87.606h10.17v30.2h-10.17v-30.2zm17.982 0h10.17v30.2h-10.17v-30.2zm17.982 20.12h34.551v10.08H90.016v-10.08zm37.483-125.808c1.249 0 2.305 1.056 2.305 2.306v5.657c0 1.25-1.056 2.306-2.305 2.306H97.013V36.878H127.5zM49.866 24.225c0-9.05 7.363-16.413 16.412-16.413h6.5c9.056 0 16.423 7.363 16.423 16.413v22.923H49.866V24.225zM9.252 39.184c0-1.25 1.056-2.305 2.305-2.305h30.497v10.269H11.557c-1.25 0-2.305-1.056-2.305-2.306v-5.658zm5.237 123.502h31.75v10.08H14.49v-10.08z"
    ></path>
    <path d="M60.21 31.386h5.417v5.406a3.907 3.907 0 0 0 7.813 0v-5.406h5.406a3.907 3.907 0 0 0 0-7.812H73.44v-5.406a3.907 3.907 0 0 0-7.813 0v5.406h-5.416a3.907 3.907 0 0 0 0 7.812zm-28.224 91.261a3.906 3.906 0 0 0 3.907-3.906v-5.071a3.907 3.907 0 1 0-7.813 0v5.071a3.906 3.906 0 0 0 3.906 3.906zm25.024 0a3.906 3.906 0 0 0 3.907-3.906v-5.071a3.907 3.907 0 1 0-7.813 0v5.071a3.906 3.906 0 0 0 3.907 3.906zm25.036 0a3.907 3.907 0 0 0 3.906-3.906v-5.071a3.907 3.907 0 1 0-7.813 0v5.071a3.906 3.906 0 0 0 3.907 3.906zm25.035 0a3.906 3.906 0 0 0 3.906-3.906v-5.071a3.907 3.907 0 1 0-7.812 0v5.071a3.906 3.906 0 0 0 3.906 3.906zm39.341-8.482a3.906 3.906 0 0 0 3.906-3.906v-5.06a3.906 3.906 0 0 0-7.812 0v5.06a3.906 3.906 0 0 0 3.906 3.906zm25.035 0a3.907 3.907 0 0 0 3.907-3.906v-5.06a3.907 3.907 0 0 0-7.813 0v5.06a3.906 3.906 0 0 0 3.906 3.906zm-25.035 22.522a3.907 3.907 0 0 0 3.906-3.907v-5.071a3.906 3.906 0 0 0-7.812 0v5.071a3.906 3.906 0 0 0 3.906 3.907zm25.035 0a3.907 3.907 0 0 0 3.907-3.907v-5.071a3.907 3.907 0 0 0-7.813 0v5.071a3.907 3.907 0 0 0 3.906 3.907zm-78.826 55.501a3.906 3.906 0 0 0 0 7.812h.022a3.897 3.897 0 0 0 3.896-3.906 3.916 3.916 0 0 0-3.918-3.906z"
    ></path>
  </symbol>

  <symbol viewBox="0 0 200 200" xmlns="http://www.w3.org/2000/svg" id="card-pacient">
    <g clip-path="url(#clip0)">
      <mask id="a" maskUnits="userSpaceOnUse" x="15.222" y="-1" width="170" height="202">
        <path d="M15.222-1h170v202h-170z"></path>
        <path d="M162.064 150.428L115.807 139.2c-.839-3.618-.458-8.801.21-11.365a1.12 1.12 0 0 0 .04-.032c15.124-12.226 22.792-23.247 22.792-32.755 0-.996-.041-1.993-.122-2.964l-.004-.045a38.283 38.283 0 0 1-.122-1.745c6.161-1.388 10.831-6.887 10.912-13.44a13.845 13.845 0 0 0-4.024-9.971 14.064 14.064 0 0 0-2.554-2.048c5.91-4.23 9.769-11.152 9.769-18.958 0-7.993-4.16-15.429-10.804-19.668a16.909 16.909 0 0 0 1.068-5.916c0-9.311-7.576-16.886-16.887-16.886-2.497 0-4.92.54-7.14 1.578A13.824 13.824 0 0 0 108.279 0c-3.933 0-7.626 1.68-10.216 4.487A16.826 16.826 0 0 0 86.593 0C80 0 74.087 3.846 71.332 9.644a13.907 13.907 0 0 0-2.543-.232c-7.655 0-13.883 6.228-13.883 13.883 0 2.223.53 4.39 1.528 6.333-5.816 4.002-9.429 10.707-9.429 17.879 0 7.33 3.659 13.821 9.245 17.744a14.167 14.167 0 0 0-1.908 1.618 13.844 13.844 0 0 0-4.024 9.971c.08 6.555 4.752 12.055 10.916 13.44a41.9 41.9 0 0 1-.126 1.81 33.6 33.6 0 0 0-.123 2.957c0 9.462 7.594 20.422 22.565 32.571.704 2.48 1.133 7.862.268 11.584l-45.886 11.227c-12.585 2.469-21.711 13.548-21.711 26.37v20.272a2.929 2.929 0 0 0 2.93 2.929h109.744a2.929 2.929 0 1 0 0-5.859H49.3v-12.822a2.929 2.929 0 1 0-5.859 0v12.822h-21.36v-17.342c0-10.046 7.165-18.723 17.037-20.632.047-.009.093-.02.14-.031l31.364-7.673c3.108 13.408 15.13 23.158 29.192 23.158 14.081 0 26.103-9.762 29.198-23.187l31.735 7.703c.045.011.09.021.135.029 9.872 1.91 17.038 10.587 17.038 20.633v17.342h-21.361v-12.822a2.929 2.929 0 1 0-5.859 0v12.822h-8.249a2.93 2.93 0 1 0 0 5.859h38.398a2.93 2.93 0 0 0 2.93-2.93v-20.271c-.001-12.823-9.128-23.902-21.715-26.371zm-51.509-8.298c-.251 5.708-4.973 10.274-10.741 10.274-5.769 0-10.49-4.566-10.741-10.273 1.02-3.052 1.236-7.057.987-10.585a25.561 25.561 0 0 0 9.803 1.963h.116a25.53 25.53 0 0 0 9.582-1.873c-.239 3.505-.019 7.469.994 10.494zm33.1-65.349c-.042 3.4-2.215 6.31-5.231 7.463-.065-4.232-.065-9.578.008-15.13a8.075 8.075 0 0 1 2.889 1.885 8.035 8.035 0 0 1 2.334 5.782zm-90.79-29.274c0-6.061 3.537-11.665 9.011-14.278a2.93 2.93 0 0 0 .925-4.594 8.01 8.01 0 0 1-2.035-5.34c0-4.424 3.6-8.024 8.024-8.024a7.97 7.97 0 0 1 3.17.65 2.926 2.926 0 0 0 3.987-1.925c1.296-4.791 5.674-8.137 10.645-8.137a11 11 0 0 1 9.268 5.048 2.93 2.93 0 0 0 5.122-.368 8.052 8.052 0 0 1 7.297-4.68 8 8 0 0 1 7.145 4.368 2.928 2.928 0 0 0 4.298 1.054 10.95 10.95 0 0 1 6.359-2.017c6.081 0 11.028 4.947 11.028 11.028a11.01 11.01 0 0 1-1.551 5.642 2.927 2.927 0 0 0 1.267 4.153c6.087 2.867 10.02 9.064 10.02 15.789 0 9.617-7.824 17.44-17.441 17.44a17.463 17.463 0 0 1-15.966-10.407 2.929 2.929 0 0 0-4.473-1.134 17.17 17.17 0 0 1-10.603 3.62 17.19 17.19 0 0 1-10.433-3.488 2.93 2.93 0 0 0-4.498 1.285c-2.334 6.056-8.265 10.125-14.757 10.125-8.717 0-15.81-7.092-15.81-15.81zm3.313 29.262a8.03 8.03 0 0 1 2.333-5.782 8.076 8.076 0 0 1 2.89-1.886c.074 5.558.074 10.897.01 15.132-3.019-1.152-5.192-4.064-5.233-7.464zm10.666 18.278c0-.871.034-1.691.098-2.41.128-1.303.22-3.38.28-5.924h8.285a2.93 2.93 0 1 0 0-5.859h-8.202c.023-3.705.005-7.794-.045-11.724.468.03.939.046 1.414.046 7.704 0 14.83-4.181 18.681-10.692a23.006 23.006 0 0 0 11.007 2.77c4.03 0 7.889-1.011 11.331-2.947a23.324 23.324 0 0 0 22.883 10.654 618.584 618.584 0 0 0-.046 11.893H89.257a2.929 2.929 0 1 0 0 5.859h43.355c.06 2.523.151 4.583.278 5.878.066.804.1 1.63.1 2.457 0 7.544-7.129 17.296-20.622 28.204a19.714 19.714 0 0 1-12.402 4.399h-.09a19.747 19.747 0 0 1-12.426-4.413c-13.48-10.9-20.606-20.648-20.606-28.19zm32.97 70.715c-11.337 0-21.025-7.874-23.5-18.691l7.29-1.784c1.662 7.416 8.299 12.975 16.21 12.975 7.912 0 14.551-5.562 16.21-12.981l7.294 1.77c-2.467 10.83-12.154 18.711-23.504 18.711z"></path>
      </mask>
      <path d="M162.064 150.428L115.807 139.2c-.839-3.618-.458-8.801.21-11.365a1.12 1.12 0 0 0 .04-.032c15.124-12.226 22.792-23.247 22.792-32.755 0-.996-.041-1.993-.122-2.964l-.004-.045a38.283 38.283 0 0 1-.122-1.745c6.161-1.388 10.831-6.887 10.912-13.44a13.845 13.845 0 0 0-4.024-9.971 14.064 14.064 0 0 0-2.554-2.048c5.91-4.23 9.769-11.152 9.769-18.958 0-7.993-4.16-15.429-10.804-19.668a16.909 16.909 0 0 0 1.068-5.916c0-9.311-7.576-16.886-16.887-16.886-2.497 0-4.92.54-7.14 1.578A13.824 13.824 0 0 0 108.279 0c-3.933 0-7.626 1.68-10.216 4.487A16.826 16.826 0 0 0 86.593 0C80 0 74.087 3.846 71.332 9.644a13.907 13.907 0 0 0-2.543-.232c-7.655 0-13.883 6.228-13.883 13.883 0 2.223.53 4.39 1.528 6.333-5.816 4.002-9.429 10.707-9.429 17.879 0 7.33 3.659 13.821 9.245 17.744a14.167 14.167 0 0 0-1.908 1.618 13.844 13.844 0 0 0-4.024 9.971c.08 6.555 4.752 12.055 10.916 13.44a41.9 41.9 0 0 1-.126 1.81 33.6 33.6 0 0 0-.123 2.957c0 9.462 7.594 20.422 22.565 32.571.704 2.48 1.133 7.862.268 11.584l-45.886 11.227c-12.585 2.469-21.711 13.548-21.711 26.37v20.272a2.929 2.929 0 0 0 2.93 2.929h109.744a2.929 2.929 0 1 0 0-5.859H49.3v-12.822a2.929 2.929 0 1 0-5.859 0v12.822h-21.36v-17.342c0-10.046 7.165-18.723 17.037-20.632.047-.009.093-.02.14-.031l31.364-7.673c3.108 13.408 15.13 23.158 29.192 23.158 14.081 0 26.103-9.762 29.198-23.187l31.735 7.703c.045.011.09.021.135.029 9.872 1.91 17.038 10.587 17.038 20.633v17.342h-21.361v-12.822a2.929 2.929 0 1 0-5.859 0v12.822h-8.249a2.93 2.93 0 1 0 0 5.859h38.398a2.93 2.93 0 0 0 2.93-2.93v-20.271c-.001-12.823-9.128-23.902-21.715-26.371zm-51.509-8.298c-.251 5.708-4.973 10.274-10.741 10.274-5.769 0-10.49-4.566-10.741-10.273 1.02-3.052 1.236-7.057.987-10.585a25.561 25.561 0 0 0 9.803 1.963h.116a25.53 25.53 0 0 0 9.582-1.873c-.239 3.505-.019 7.469.994 10.494zm33.1-65.349c-.042 3.4-2.215 6.31-5.231 7.463-.065-4.232-.065-9.578.008-15.13a8.075 8.075 0 0 1 2.889 1.885 8.035 8.035 0 0 1 2.334 5.782zm-90.79-29.274c0-6.061 3.537-11.665 9.011-14.278a2.93 2.93 0 0 0 .925-4.594 8.01 8.01 0 0 1-2.035-5.34c0-4.424 3.6-8.024 8.024-8.024a7.97 7.97 0 0 1 3.17.65 2.926 2.926 0 0 0 3.987-1.925c1.296-4.791 5.674-8.137 10.645-8.137a11 11 0 0 1 9.268 5.048 2.93 2.93 0 0 0 5.122-.368 8.052 8.052 0 0 1 7.297-4.68 8 8 0 0 1 7.145 4.368 2.928 2.928 0 0 0 4.298 1.054 10.95 10.95 0 0 1 6.359-2.017c6.081 0 11.028 4.947 11.028 11.028a11.01 11.01 0 0 1-1.551 5.642 2.927 2.927 0 0 0 1.267 4.153c6.087 2.867 10.02 9.064 10.02 15.789 0 9.617-7.824 17.44-17.441 17.44a17.463 17.463 0 0 1-15.966-10.407 2.929 2.929 0 0 0-4.473-1.134 17.17 17.17 0 0 1-10.603 3.62 17.19 17.19 0 0 1-10.433-3.488 2.93 2.93 0 0 0-4.498 1.285c-2.334 6.056-8.265 10.125-14.757 10.125-8.717 0-15.81-7.092-15.81-15.81zm3.313 29.262a8.03 8.03 0 0 1 2.333-5.782 8.076 8.076 0 0 1 2.89-1.886c.074 5.558.074 10.897.01 15.132-3.019-1.152-5.192-4.064-5.233-7.464zm10.666 18.278c0-.871.034-1.691.098-2.41.128-1.303.22-3.38.28-5.924h8.285a2.93 2.93 0 1 0 0-5.859h-8.202c.023-3.705.005-7.794-.045-11.724.468.03.939.046 1.414.046 7.704 0 14.83-4.181 18.681-10.692a23.006 23.006 0 0 0 11.007 2.77c4.03 0 7.889-1.011 11.331-2.947a23.324 23.324 0 0 0 22.883 10.654 618.584 618.584 0 0 0-.046 11.893H89.257a2.929 2.929 0 1 0 0 5.859h43.355c.06 2.523.151 4.583.278 5.878.066.804.1 1.63.1 2.457 0 7.544-7.129 17.296-20.622 28.204a19.714 19.714 0 0 1-12.402 4.399h-.09a19.747 19.747 0 0 1-12.426-4.413c-13.48-10.9-20.606-20.648-20.606-28.19zm32.97 70.715c-11.337 0-21.025-7.874-23.5-18.691l7.29-1.784c1.662 7.416 8.299 12.975 16.21 12.975 7.912 0 14.551-5.562 16.21-12.981l7.294 1.77c-2.467 10.83-12.154 18.711-23.504 18.711z"
      ></path>
      <path d="M162.064 150.428L115.807 139.2c-.839-3.618-.458-8.801.21-11.365a1.12 1.12 0 0 0 .04-.032c15.124-12.226 22.792-23.247 22.792-32.755 0-.996-.041-1.993-.122-2.964l-.004-.045a38.283 38.283 0 0 1-.122-1.745c6.161-1.388 10.831-6.887 10.912-13.44a13.845 13.845 0 0 0-4.024-9.971 14.064 14.064 0 0 0-2.554-2.048c5.91-4.23 9.769-11.152 9.769-18.958 0-7.993-4.16-15.429-10.804-19.668a16.909 16.909 0 0 0 1.068-5.916c0-9.311-7.576-16.886-16.887-16.886-2.497 0-4.92.54-7.14 1.578A13.824 13.824 0 0 0 108.279 0c-3.933 0-7.626 1.68-10.216 4.487A16.826 16.826 0 0 0 86.593 0C80 0 74.087 3.846 71.332 9.644a13.907 13.907 0 0 0-2.543-.232c-7.655 0-13.883 6.228-13.883 13.883 0 2.223.53 4.39 1.528 6.333-5.816 4.002-9.429 10.707-9.429 17.879 0 7.33 3.659 13.821 9.245 17.744a14.167 14.167 0 0 0-1.908 1.618 13.844 13.844 0 0 0-4.024 9.971c.08 6.555 4.752 12.055 10.916 13.44a41.9 41.9 0 0 1-.126 1.81 33.6 33.6 0 0 0-.123 2.957c0 9.462 7.594 20.422 22.565 32.571.704 2.48 1.133 7.862.268 11.584l-45.886 11.227c-12.585 2.469-21.711 13.548-21.711 26.37v20.272a2.929 2.929 0 0 0 2.93 2.929h109.744a2.929 2.929 0 1 0 0-5.859H49.3v-12.822a2.929 2.929 0 1 0-5.859 0v12.822h-21.36v-17.342c0-10.046 7.165-18.723 17.037-20.632.047-.009.093-.02.14-.031l31.364-7.673c3.108 13.408 15.13 23.158 29.192 23.158 14.081 0 26.103-9.762 29.198-23.187l31.735 7.703c.045.011.09.021.135.029 9.872 1.91 17.038 10.587 17.038 20.633v17.342h-21.361v-12.822a2.929 2.929 0 1 0-5.859 0v12.822h-8.249a2.93 2.93 0 1 0 0 5.859h38.398a2.93 2.93 0 0 0 2.93-2.93v-20.271c-.001-12.823-9.128-23.902-21.715-26.371zm-51.509-8.298c-.251 5.708-4.973 10.274-10.741 10.274-5.769 0-10.49-4.566-10.741-10.273 1.02-3.052 1.236-7.057.987-10.585a25.561 25.561 0 0 0 9.803 1.963h.116a25.53 25.53 0 0 0 9.582-1.873c-.239 3.505-.019 7.469.994 10.494zm33.1-65.349c-.042 3.4-2.215 6.31-5.231 7.463-.065-4.232-.065-9.578.008-15.13a8.075 8.075 0 0 1 2.889 1.885 8.035 8.035 0 0 1 2.334 5.782zm-90.79-29.274c0-6.061 3.537-11.665 9.011-14.278a2.93 2.93 0 0 0 .925-4.594 8.01 8.01 0 0 1-2.035-5.34c0-4.424 3.6-8.024 8.024-8.024a7.97 7.97 0 0 1 3.17.65 2.926 2.926 0 0 0 3.987-1.925c1.296-4.791 5.674-8.137 10.645-8.137a11 11 0 0 1 9.268 5.048 2.93 2.93 0 0 0 5.122-.368 8.052 8.052 0 0 1 7.297-4.68 8 8 0 0 1 7.145 4.368 2.928 2.928 0 0 0 4.298 1.054 10.95 10.95 0 0 1 6.359-2.017c6.081 0 11.028 4.947 11.028 11.028a11.01 11.01 0 0 1-1.551 5.642 2.927 2.927 0 0 0 1.267 4.153c6.087 2.867 10.02 9.064 10.02 15.789 0 9.617-7.824 17.44-17.441 17.44a17.463 17.463 0 0 1-15.966-10.407 2.929 2.929 0 0 0-4.473-1.134 17.17 17.17 0 0 1-10.603 3.62 17.19 17.19 0 0 1-10.433-3.488 2.93 2.93 0 0 0-4.498 1.285c-2.334 6.056-8.265 10.125-14.757 10.125-8.717 0-15.81-7.092-15.81-15.81zm3.313 29.262a8.03 8.03 0 0 1 2.333-5.782 8.076 8.076 0 0 1 2.89-1.886c.074 5.558.074 10.897.01 15.132-3.019-1.152-5.192-4.064-5.233-7.464zm10.666 18.278c0-.871.034-1.691.098-2.41.128-1.303.22-3.38.28-5.924h8.285a2.93 2.93 0 1 0 0-5.859h-8.202c.023-3.705.005-7.794-.045-11.724.468.03.939.046 1.414.046 7.704 0 14.83-4.181 18.681-10.692a23.006 23.006 0 0 0 11.007 2.77c4.03 0 7.889-1.011 11.331-2.947a23.324 23.324 0 0 0 22.883 10.654 618.584 618.584 0 0 0-.046 11.893H89.257a2.929 2.929 0 1 0 0 5.859h43.355c.06 2.523.151 4.583.278 5.878.066.804.1 1.63.1 2.457 0 7.544-7.129 17.296-20.622 28.204a19.714 19.714 0 0 1-12.402 4.399h-.09a19.747 19.747 0 0 1-12.426-4.413c-13.48-10.9-20.606-20.648-20.606-28.19zm32.97 70.715c-11.337 0-21.025-7.874-23.5-18.691l7.29-1.784c1.662 7.416 8.299 12.975 16.21 12.975 7.912 0 14.551-5.562 16.21-12.981l7.294 1.77c-2.467 10.83-12.154 18.711-23.504 18.711z" stroke-width="2" mask="url(#a)"></path>
      <path d="M116.351 98.481a3.429 3.429 0 0 0-3.429-3.429H86.994a3.429 3.429 0 1 0 0 6.859h25.928a3.43 3.43 0 0 0 3.429-3.43zm-7.251 8.288H90.984a3.429 3.429 0 1 0 0 6.859H109.1a3.429 3.429 0 1 0 0-6.859z"></path>
    </g>
    <defs>
      <clipPath id="clip0">
        <path fill="#fff" d="M0 0h200v200H0z"></path>
      </clipPath>
    </defs>
  </symbol>

  <symbol viewBox="0 0 10 10" fill="none" xmlns="http://www.w3.org/2000/svg" id="close">
    <path d="M5.552 5L9.886.667a.39.39 0 0 0-.553-.553L5 4.448.667.114a.39.39 0 1 0-.553.553L4.448 5 .114 9.333a.39.39 0 1 0 .553.553L5 5.552l4.333 4.334a.39.39 0 0 0 .553 0 .39.39 0 0 0 0-.553L5.552 5z" fill="#BEBEBE" fill-opacity=".9"></path>
  </symbol>

  <symbol viewBox="0 0 30 30" fill="none" xmlns="http://www.w3.org/2000/svg" id="hospital-svg">
    <path d="M25.607 4.393A14.902 14.902 0 0 0 15 0C10.993 0 7.226 1.56 4.393 4.393A14.902 14.902 0 0 0 0 15c0 4.007 1.56 7.773 4.393 10.607A14.902 14.902 0 0 0 15 30c4.007 0 7.773-1.56 10.607-4.393A14.902 14.902 0 0 0 30 15c0-4.007-1.56-7.773-4.393-10.607zM15 28.243C7.698 28.242 1.758 22.301 1.758 15 1.758 7.698 7.698 1.758 15 1.758c7.302 0 13.242 5.94 13.242 13.242 0 7.302-5.94 13.242-13.242 13.242z"
      fill="#DCE6F0"></path>
    <path d="M24.712 15c0 5.355-4.357 9.712-9.712 9.712v1.758c6.324 0 11.47-5.146 11.47-11.47h-1.758zM15 5.288V3.53C8.676 3.53 3.53 8.676 3.53 15h1.758c0-5.355 4.357-9.712 9.712-9.712z" fill="#DCE6F0"></path>
    <path d="M17.644 17.644h4.413v-5.288h-4.413V7.943h-5.288v4.413H7.943v5.288h4.413v4.413h5.288v-4.413zM15.886 20.3h-1.772v-4.413H9.7v-1.772h4.413V9.7h1.772v4.413H20.3v1.772h-4.413V20.3z" fill="#E22"></path>
  </symbol>

  <symbol viewBox="0 0 30 30" fill="none" xmlns="http://www.w3.org/2000/svg" id="pacient-svg">
    <path d="M23.436 23.58c.001-.063.002-.126.001-.19-.025-4.596-3.775-8.355-8.372-8.39-4.682-.035-8.502 3.763-8.502 8.438 0 .065 0 .13.002.195.064 2.813 2.04 5.223 4.77 5.912a14.987 14.987 0 0 0 7.33 0c2.748-.693 4.724-3.132 4.771-5.966z" fill="#2F80ED"></path>
    <path d="M25.606 4.393A14.983 14.983 0 0 0 15 0C10.993 0 7.226 1.56 4.393 4.393A14.902 14.902 0 0 0 0 15a15.011 15.011 0 0 0 4.365 10.578c.203.204.546.02.494-.263a10.33 10.33 0 0 1-.171-1.878c0-4.279 2.62-7.957 6.34-9.516a.292.292 0 0 0 .09-.479 5.61 5.61 0 0 1-1.74-4.266 5.641 5.641 0 0 1 5.4-5.422 5.631 5.631 0 0 1 5.847 5.621c0 1.598-.67 3.042-1.744 4.067a.292.292 0 0 0 .092.48c3.72 1.558 6.34 5.236 6.34 9.515 0 .642-.06 1.27-.172 1.878-.052.283.29.467.494.263A15.01 15.01 0 0 0 30 15c0-4.007-1.56-7.774-4.394-10.607z"
      fill="#DCE6F0"></path>
    <path d="M15 13.125a3.75 3.75 0 1 0 0-7.5 3.75 3.75 0 0 0 0 7.5z" fill="#2F80ED"></path>
  </symbol>

  <symbol viewBox="0 0 4 24" fill="none" xmlns="http://www.w3.org/2000/svg" id="not-described">
    <path d="M3.756.227a.748.748 0 0 1 .213.544l-.495 15.562a.753.753 0 0 1-.753.734H1.249a.752.752 0 0 1-.753-.734L0 .771A.755.755 0 0 1 .752 0h2.465a.76.76 0 0 1 .54.227zm.182 20.202v2.819a.753.753 0 0 1-.753.752h-2.4a.753.753 0 0 1-.754-.752v-2.819c0-.415.337-.752.753-.752h2.4c.417 0 .754.337.754.752z"
      fill="#E22"></path>
  </symbol>

  <symbol viewBox="0 0 24 24" fill="none" xmlns="http://www.w3.org/2000/svg" id="described">
    <path d="M22.069 2.846L7.622 17.292l-5.69-5.691L0 13.532l7.622 7.622L24 4.777l-1.931-1.931z" fill="#2EAFFF"></path>
  </symbol>

  <symbol viewBox="0 0 34 21" fill="none" xmlns="http://www.w3.org/2000/svg" id="arrow-cards">
    <path d="M16.811 18.478l-.3.226-.301-.226L1.873 7.68c-.317-.228-.857-.227-1.173.002-.146.107-.18.213-.181.279-.002.064.026.166.16.273l15.235 11.472c.147.11.361.18.597.18.235 0 .45-.07.597-.18L32.346 8.232c.141-.107.172-.212.172-.277 0-.065-.03-.17-.173-.277a1.006 1.006 0 0 0-.596-.179c-.236 0-.45.069-.597.18l-14.34 10.799z"
      fill="#2EAFFF" stroke="#2EAFFF"></path>
    <path d="M16.812 11.479l-.3.226-.302-.226L1.874.682C1.557.454 1.017.455.7.684.555.791.52.897.519.963c-.001.064.026.166.161.273l15.234 11.472c.147.11.362.18.597.18.236 0 .45-.07.597-.18L32.346 1.233c.142-.107.173-.212.173-.277 0-.065-.031-.17-.173-.277A1.006 1.006 0 0 0 31.749.5c-.236 0-.45.069-.597.18l-14.34 10.799z"
      fill="#2EAFFF" stroke="#2EAFFF"></path>
  </symbol>

  <symbol viewBox="0 0 20 20" xmlns="http://www.w3.org/2000/svg" id="log-svg">
    <path d="M14.102 15.313v1.562A3.129 3.129 0 0 1 10.977 20H3.125A3.128 3.128 0 0 1 0 16.875V3.125A3.128 3.128 0 0 1 3.125 0h7.852a3.129 3.129 0 0 1 3.125 3.125v1.563a.781.781 0 1 1-1.563 0V3.125c0-.862-.7-1.563-1.562-1.563H3.125c-.862 0-1.563.701-1.563 1.563v13.75c0 .861.701 1.563 1.563 1.563h7.852c.861 0 1.562-.701 1.562-1.563v-1.563a.781.781 0 1 1 1.563 0zm5.326-6.655l-1.75-1.75a.781.781 0 1 0-1.104 1.105l1.244 1.245h-9.38a.781.781 0 1 0 0 1.562h9.38l-1.244 1.245a.781.781 0 1 0 1.104 1.105l1.75-1.75c.761-.761.761-2 0-2.762z"
      ></path>
  </symbol>

  <symbol viewBox="0 0 21 20" xmlns="http://www.w3.org/2000/svg" id="arr-in">
    <path d="M14.102 15.313v1.562A3.129 3.129 0 0 1 10.977 20H3.125A3.128 3.128 0 0 1 0 16.875V3.125A3.128 3.128 0 0 1 3.125 0h7.852a3.129 3.129 0 0 1 3.125 3.125v1.563a.781.781 0 1 1-1.563 0V3.125c0-.862-.7-1.563-1.562-1.563H3.125c-.862 0-1.563.701-1.563 1.563v13.75c0 .861.701 1.563 1.563 1.563h7.852c.861 0 1.562-.701 1.562-1.563v-1.563a.781.781 0 1 1 1.563 0z"
     ></path>
    <path d="M10.25 7.01L8.5 8.76c-.762.761-.762 2 0 2.762l1.75 1.75a.779.779 0 0 0 1.104 0 .78.78 0 0 0 0-1.106l-1.244-1.244h9.38a.781.781 0 1 0 0-1.563h-9.38l1.244-1.244A.78.78 0 1 0 10.25 7.01z"></path>
  </symbol>

  <symbol viewBox="0 0 24 24" fill="none" xmlns="http://www.w3.org/2000/svg" id="date-svg">
    <path d="M20.906 1.875H18.75V.75a.75.75 0 0 0-1.5 0v1.125H6.75V.75a.75.75 0 0 0-1.5 0v1.125H3.094A3.097 3.097 0 0 0 0 4.969v15.937A3.097 3.097 0 0 0 3.094 24h17.812A3.097 3.097 0 0 0 24 20.906V4.97a3.097 3.097 0 0 0-3.094-3.094zm-17.812 1.5H5.25v.75a.75.75 0 0 0 1.5 0v-.75h10.5v.75a.75.75 0 0 0 1.5 0v-.75h2.156c.88 0 1.594.715 1.594 1.594V6.75h-21V4.969c0-.88.715-1.594 1.594-1.594zM20.906 22.5H3.094A1.596 1.596 0 0 1 1.5 20.906V8.25h21v12.656c0 .88-.715 1.594-1.594 1.594z"
      fill="#0FA3FF"></path>
  </symbol>

  <symbol viewBox="0 0 17 23" fill="none" xmlns="http://www.w3.org/2000/svg" id="save-svg">
    <path d="M1 .5h14.763a.5.5 0 0 1 .5.5v20.418a.5.5 0 0 1-.87.336l-5.903-6.48a1.5 1.5 0 0 0-2.217 0l-5.903 6.48a.5.5 0 0 1-.87-.337V1A.5.5 0 0 1 1 .5z" stroke="#2EAFFF"></path>
  </symbol>

  <symbol viewBox="0 0 24 24" fill="none" xmlns="http://www.w3.org/2000/svg" id="back-svg">
    <g clip-path="url(#clip0)">
      <path d="M18.039 8.47H1.692L5.13 4.618a.606.606 0 1 0-.904-.807L.354 8.149a1.392 1.392 0 0 0 0 1.855l3.87 4.338a.605.605 0 0 0 .857.05.606.606 0 0 0 .048-.857L1.692 9.683H18.04a4.754 4.754 0 0 1 4.748 4.748 4.754 4.754 0 0 1-4.748 4.749h-2.887a.606.606 0 0 0 0 1.212h2.887a5.968 5.968 0 0 0 5.96-5.96 5.968 5.968 0 0 0-5.961-5.962z"
        fill="#2EAFFF"></path>
    </g>
    <defs>
      <clipPath id="clip0">
        <path fill="#fff" d="M0 0h24v24H0z"></path>
      </clipPath>
    </defs>
  </symbol>

  <symbol viewBox="0 0 360 360" fill="none" xmlns="http://www.w3.org/2000/svg" id="brain">
    <g clip-path="url(#clip0)" fill="#B32078">
      <path d="M215.15 58.366a7.034 7.034 0 0 0-7.031 7.031 7.034 7.034 0 0 0 7.031 7.032 7.034 7.034 0 0 0 7.031-7.032 7.034 7.034 0 0 0-7.031-7.03zm-70.309-.004a7.034 7.034 0 0 0-7.031 7.032 7.034 7.034 0 0 0 7.031 7.03 7.034 7.034 0 0 0 7.031-7.03 7.034 7.034 0 0 0-7.031-7.032z"></path>
      <path d="M332.67 210.145c6.035-9.057 9.054-20.359 9.054-30.151 0-14.763-6.558-28.479-17.811-37.78 2.49-5.951 3.749-12.141 3.749-18.47 0-19.586-11.43-37.83-28.424-46.35 2.578-21.385-11.356-40.987-32.006-45.987C259.149 12.723 241.16-.006 222.193-.006c-17.655 0-33.49 10.298-42.187 25.324-8.698-15.026-24.533-25.324-42.188-25.324-18.968 0-36.957 12.73-45.038 31.414C72.006 36.44 58.202 56.14 60.773 77.394c-16.993 8.519-28.423 26.764-28.423 46.35 0 6.329 1.258 12.519 3.749 18.47-11.254 9.302-17.812 23.017-17.812 37.78 0 9.844 3.045 21.13 9.054 30.151-5.872 8.289-9.054 18.114-9.054 28.208 0 13.09 5.307 25.559 14.695 34.818-4.826 29.174 18.44 58.698 48.586 58.698.218 0 .433-.004.643-.01 9.995 17.242 28.548 28.135 48.576 28.135 20.874 0 39.527-12.53 49.219-30.582 9.692 18.052 28.344 30.582 49.219 30.582 20.028 0 38.581-10.893 48.576-28.135.211.006.424.01.642.01 26.68 0 49.219-23.506 49.219-51.328 0-2.369-.208-4.805-.632-7.37 9.387-9.259 14.694-21.728 14.694-34.818 0-10.094-3.181-19.919-9.054-28.208zM172.975 106.434a27.936 27.936 0 0 0-14.063-3.784 7.031 7.031 0 0 0 0 14.063c7.754 0 14.063 6.308 14.063 14.062v133.713c-10.316-11.701-25.399-19.103-42.188-19.103a7.031 7.031 0 0 0 0 14.062c23.262 0 42.188 18.925 42.188 42.188 0 24.011-19.32 44.296-42.188 44.296-16.279 0-31.264-9.626-38.179-24.525a7.035 7.035 0 0 0-7.172-4.026c-.497.057-.991.123-1.486.191-20.01 2.736-42.546-19.923-36.445-45.272a7.03 7.03 0 0 0-2.339-7.049c-8.145-6.777-12.816-16.581-12.816-26.897 0-6.378 1.803-12.619 5.16-18.093 8.432 6.912 18.922 11.062 29.996 11.062a7.031 7.031 0 1 0 0-14.062c-19.082 0-35.156-17.417-35.156-37.266 0-12.041 6.137-23.118 16.419-29.631a7.031 7.031 0 0 0 2.353-9.408c-3.125-5.512-4.71-11.303-4.71-17.211 0-18.977 15.47-37.266 35.156-37.266 18.729 0 35.157 17.415 35.157 37.266a7.031 7.031 0 0 0 14.062 0c0-27.823-22.539-51.328-49.219-51.328-2.354 0-4.695.19-7.013.551-.004-.185-.018-.365-.018-.551 0-15.692 12.739-28.125 28.125-28.125 7.511 0 14.576 2.926 19.893 8.237a7.031 7.031 0 0 0 9.939-9.949c-6.415-6.407-14.528-10.494-23.321-11.848 6.201-9.205 16.512-16.675 28.645-16.675 18.729 0 35.157 17.414 35.157 37.266v55.112zm119.531 124.888c11.074 0 21.564-4.151 29.997-11.059 3.355 5.472 5.159 11.713 5.159 18.09 0 10.316-4.672 20.12-12.816 26.897a7.028 7.028 0 0 0-2.338 7.049c.745 3.096 1.091 5.715 1.091 8.241 0 21.825-19.74 39.464-37.537 37.031-.495-.068-.99-.134-1.487-.191a7.028 7.028 0 0 0-7.171 4.026c-6.914 14.899-21.901 24.525-38.179 24.525-22.868 0-42.188-20.285-42.188-44.296 0-23.263 18.925-42.188 42.188-42.188a7.032 7.032 0 0 0 0-14.062c-16.789 0-31.872 7.402-42.188 19.103V130.775c0-7.754 6.308-14.062 14.063-14.062a7.032 7.032 0 0 0 0-14.063 27.936 27.936 0 0 0-14.063 3.784V51.322c0-19.852 16.428-37.266 35.156-37.266 12.133 0 22.444 7.47 28.645 16.674-8.792 1.354-16.905 5.441-23.32 11.849a7.03 7.03 0 0 0-.006 9.943 7.03 7.03 0 0 0 9.943.006c5.319-5.311 12.384-8.237 19.894-8.237 15.464 0 28.125 12.506 28.125 28.125 0 .185-.014.366-.017.551a45.596 45.596 0 0 0-7.014-.551c-26.679 0-49.218 23.505-49.218 51.328a7.031 7.031 0 0 0 14.062 0c0-19.851 16.428-37.266 35.156-37.266 19.675 0 35.156 18.279 35.156 37.266 0 5.908-1.584 11.699-4.71 17.211a7.033 7.033 0 0 0 2.354 9.408c10.281 6.513 16.419 17.59 16.419 29.631 0 19.92-16.13 37.266-35.156 37.266a7.031 7.031 0 1 0 0 14.062z"></path>
      <path d="M157.105 150.517a7.031 7.031 0 0 0-9.928-.552c-22.548 20.169-58.593 4.05-58.593-26.204a7.031 7.031 0 0 0-14.063 0c0 24.409 17.864 44.715 41.203 48.556-2.707 8.527-10.697 14.725-20.11 14.725a7.031 7.031 0 0 0 0 14.063c17.127 0 31.423-12.312 34.526-28.548a49.135 49.135 0 0 0 26.412-12.112 7.031 7.031 0 0 0 .553-9.928zM81.566 273.513a7.031 7.031 0 0 0 0 14.062c18.728 0 35.156 17.414 35.156 37.266a7.031 7.031 0 0 0 14.063 0c0-27.823-22.54-51.328-49.22-51.328zm56.241-56.243c-23.826 0-44.282 13.068-55.054 32.068a7.032 7.032 0 0 0 12.234 6.935c8.391-14.805 24.314-24.94 42.82-24.94a7.031 7.031 0 1 0 0-14.063zm126.568-30.24c-9.412 0-17.402-6.198-20.109-14.726 23.339-3.84 41.203-24.146 41.203-48.555a7.031 7.031 0 1 0-14.063 0c0 19.385-15.771 35.156-35.156 35.156a35.11 35.11 0 0 1-23.437-8.953 7.03 7.03 0 0 0-9.928.553 7.03 7.03 0 0 0 .552 9.928 49.143 49.143 0 0 0 26.413 12.111c3.102 16.237 17.399 28.549 34.525 28.549a7.031 7.031 0 0 0 0-14.063zm14.062 86.485c-26.679 0-49.218 23.505-49.218 51.328a7.031 7.031 0 0 0 14.062 0c0-19.852 16.428-37.266 35.156-37.266a7.032 7.032 0 1 0 0-14.062zm-1.207-24.168c-10.746-18.956-31.174-32.069-55.055-32.069a7.031 7.031 0 0 0 0 14.063c18.493 0 34.428 10.132 42.82 24.94a7.032 7.032 0 0 0 12.235-6.934z"></path>
    </g>
    <defs>
      <clipPath id="clip0">
        <path fill="#fff" d="M0 0h360v360H0z"></path>
      </clipPath>
    </defs>
  </symbol>

  <symbol viewBox="0 0 43 43" fill="none" xmlns="http://www.w3.org/2000/svg" id="doctors-arrow">
    <g clip-path="url(#clip0)">
      <path d="M31.735 11.312l-13.25-.463a.625.625 0 1 0-.043 1.25l11.742.41L10.26 31.087a.625.625 0 1 0 .852.914l19.923-18.578-.41 11.742a.625.625 0 1 0 1.25.044l.462-13.25a.625.625 0 0 0-.603-.647z" fill="#fff"></path>
    </g>
    <defs>
      <clipPath id="clip0">
        <path fill="#fff" transform="rotate(-43 26.656 10.5)" d="M0 0h30v30H0z"></path>
      </clipPath>
    </defs>
  </symbol>
</svg>