<svg width="0" height="0" class="hidden">
  <symbol viewBox="0 0 18 18" fill="none" xmlns="http://www.w3.org/2000/svg" id="insta-svg">
    <path d="M13.127 0H4.872A4.878 4.878 0 0 0 0 4.872v8.256A4.878 4.878 0 0 0 4.872 18h8.256A4.878 4.878 0 0 0 18 13.128V4.872A4.878 4.878 0 0 0 13.127 0zM9 13.922A4.927 4.927 0 0 1 4.078 9 4.927 4.927 0 0 1 9 4.078 4.927 4.927 0 0 1 13.922 9 4.927 4.927 0 0 1 9 13.922zm5.04-8.683a1.456 1.456 0 0 1-1.455-1.454c0-.802.652-1.455 1.454-1.455.802 0 1.455.653 1.455 1.455s-.653 1.454-1.455 1.454z"
      fill="#706A6A"></path>
  </symbol>
    <symbol viewBox="0 0 18 16" fill="none" xmlns="http://www.w3.org/2000/svg" id="telegram-svg">
    <path d="M7.063 10.386l-.298 4.188c.426 0 .61-.183.832-.403l1.997-1.909 4.139 3.031c.758.423 1.293.2 1.498-.698l2.717-12.73C18.19.743 17.543.305 16.803.579L.835 6.693c-1.09.423-1.073 1.03-.185 1.305l4.082 1.27 9.483-5.933c.446-.296.852-.132.518.163l-7.67 6.888z"
      fill="#706A6A"></path>
    </symbol>
      <symbol viewBox="0 0 18 18" fill="none" xmlns="http://www.w3.org/2000/svg" id="facebook">
    <path d="M15.363 0H2.637A2.64 2.64 0 0 0 0 2.637v12.726A2.64 2.64 0 0 0 2.637 18h5.308v-6.363h-2.11V8.473h2.11V6.328a3.168 3.168 0 0 1 3.164-3.164h3.2v3.164h-3.2v2.145h3.2l-.528 3.164H11.11V18h4.254A2.64 2.64 0 0 0 18 15.363V2.637A2.64 2.64 0 0 0 15.363 0z"
      fill="#706A6A"></path>
  </symbol>
    <symbol viewBox="0 0 18 18" fill="none" xmlns="http://www.w3.org/2000/svg" id="phone-svg">
    <path d="M16.556 11.815c-1.102 0-2.184-.172-3.21-.511-.502-.172-1.12-.014-1.427.3l-2.024 1.528c-2.347-1.253-3.792-2.698-5.028-5.027L6.35 6.133c.385-.384.523-.946.357-1.474a10.235 10.235 0 0 1-.513-3.215C6.194.648 5.546 0 4.75 0H1.444C.648 0 0 .648 0 1.444 0 10.574 7.427 18 16.556 18c.796 0 1.444-.648 1.444-1.444v-3.297c0-.796-.648-1.444-1.444-1.444z"
      fill="#706A6A"></path>
  </symbol>
    <symbol viewBox="0 0 200 200" fill="none" xmlns="http://www.w3.org/2000/svg" id="card-clinick">
    <path d="M31.986 77.614a3.907 3.907 0 0 0 3.907-3.906v-5.071a3.907 3.907 0 0 0-7.813 0v5.07a3.906 3.906 0 0 0 3.906 3.907zm25.024 0a3.907 3.907 0 0 0 3.907-3.906v-5.071a3.907 3.907 0 0 0-7.813 0v5.07a3.906 3.906 0 0 0 3.907 3.907zm25.036 0a3.907 3.907 0 0 0 3.906-3.906v-5.071a3.907 3.907 0 0 0-7.813 0v5.07a3.906 3.906 0 0 0 3.907 3.907zm25.035 0a3.907 3.907 0 0 0 3.906-3.906v-5.071a3.906 3.906 0 0 0-7.812 0v5.07a3.906 3.906 0 0 0 3.906 3.907zm-75.095 22.511a3.907 3.907 0 0 0 3.907-3.906v-5.06a3.907 3.907 0 0 0-7.813 0v5.06a3.906 3.906 0 0 0 3.906 3.906zm25.024 0a3.907 3.907 0 0 0 3.907-3.906v-5.06a3.907 3.907 0 0 0-7.813 0v5.06a3.906 3.906 0 0 0 3.907 3.906zm25.036 0a3.907 3.907 0 0 0 3.906-3.906v-5.06a3.907 3.907 0 0 0-7.813 0v5.06a3.906 3.906 0 0 0 3.907 3.906zm25.035 0a3.906 3.906 0 0 0 3.906-3.906v-5.06a3.907 3.907 0 0 0-7.812 0v5.06a3.906 3.906 0 0 0 3.906 3.906z"
      fill="#DCE6F0"></path>
    <path d="M196.094 172.766h-2.782V88.745c0-4.364-3.55-7.915-7.914-7.915H132.38V53.702c3.119-1.726 5.237-5.05 5.237-8.86v-5.658c0-5.578-4.539-10.118-10.118-10.118H97.014v-4.841C97.014 10.867 86.14 0 72.778 0h-6.5C52.921 0 42.054 10.867 42.054 24.225v4.841H11.557c-5.578 0-10.118 4.54-10.118 10.118v5.658c0 3.81 2.118 7.134 5.238 8.86v119.064h-2.77A3.906 3.906 0 0 0 0 176.672v19.422A3.906 3.906 0 0 0 3.906 200h71.186a3.906 3.906 0 0 0 0-7.812H7.812v-11.609h184.376v11.609H110.17a3.906 3.906 0 0 0 0 7.812h85.924a3.906 3.906 0 0 0 3.906-3.906v-19.422a3.906 3.906 0 0 0-3.906-3.906zm-10.696-84.123c.045 0 .102.056.102.102v84.021h-14.433v-17.089h1.62a3.907 3.907 0 0 0 0-7.813h-28.424a3.906 3.906 0 0 0 0 7.813h1.619v17.089H132.38V88.643h53.018zm-22.143 67.033v17.09h-9.561v-17.09h9.561zM45.96 54.96h78.607v99.913H90.016v-12.307h6.502a3.907 3.907 0 0 0 0-7.812h-56.78a3.907 3.907 0 0 0 0 7.812h6.502v12.307H14.49V54.96h31.47zm8.092 87.606h10.17v30.2h-10.17v-30.2zm17.982 0h10.17v30.2h-10.17v-30.2zm17.982 20.12h34.551v10.08H90.016v-10.08zm37.483-125.808c1.249 0 2.305 1.056 2.305 2.306v5.657c0 1.25-1.056 2.306-2.305 2.306H97.013V36.878H127.5zM49.866 24.225c0-9.05 7.363-16.413 16.412-16.413h6.5c9.056 0 16.423 7.363 16.423 16.413v22.923H49.866V24.225zM9.252 39.184c0-1.25 1.056-2.305 2.305-2.305h30.497v10.269H11.557c-1.25 0-2.305-1.056-2.305-2.306v-5.658zm5.237 123.502h31.75v10.08H14.49v-10.08z"
      fill="#DCE6F0"></path>
    <path d="M60.21 31.386h5.417v5.406a3.907 3.907 0 0 0 7.813 0v-5.406h5.406a3.907 3.907 0 0 0 0-7.812H73.44v-5.406a3.907 3.907 0 0 0-7.813 0v5.406h-5.416a3.907 3.907 0 0 0 0 7.812zm-28.224 91.261a3.906 3.906 0 0 0 3.907-3.906v-5.071a3.907 3.907 0 1 0-7.813 0v5.071a3.906 3.906 0 0 0 3.906 3.906zm25.024 0a3.906 3.906 0 0 0 3.907-3.906v-5.071a3.907 3.907 0 1 0-7.813 0v5.071a3.906 3.906 0 0 0 3.907 3.906zm25.036 0a3.907 3.907 0 0 0 3.906-3.906v-5.071a3.907 3.907 0 1 0-7.813 0v5.071a3.906 3.906 0 0 0 3.907 3.906zm25.035 0a3.906 3.906 0 0 0 3.906-3.906v-5.071a3.907 3.907 0 1 0-7.812 0v5.071a3.906 3.906 0 0 0 3.906 3.906zm39.341-8.482a3.906 3.906 0 0 0 3.906-3.906v-5.06a3.906 3.906 0 0 0-7.812 0v5.06a3.906 3.906 0 0 0 3.906 3.906zm25.035 0a3.907 3.907 0 0 0 3.907-3.906v-5.06a3.907 3.907 0 0 0-7.813 0v5.06a3.906 3.906 0 0 0 3.906 3.906zm-25.035 22.522a3.907 3.907 0 0 0 3.906-3.907v-5.071a3.906 3.906 0 0 0-7.812 0v5.071a3.906 3.906 0 0 0 3.906 3.907zm25.035 0a3.907 3.907 0 0 0 3.907-3.907v-5.071a3.907 3.907 0 0 0-7.813 0v5.071a3.907 3.907 0 0 0 3.906 3.907zm-78.826 55.501a3.906 3.906 0 0 0 0 7.812h.022a3.897 3.897 0 0 0 3.896-3.906 3.916 3.916 0 0 0-3.918-3.906z"
      fill="#DCE6F0"></path>
  </symbol>
    <symbol viewBox="0 0 200 200" fill="none" xmlns="http://www.w3.org/2000/svg" id="card-pacient">
    <g clip-path="url(#clip0)">
      <mask id="a" maskUnits="userSpaceOnUse" x="15.222" y="-1" width="170" height="202" fill="#000">
        <path fill="#fff" d="M15.222-1h170v202h-170z"></path>
        <path d="M162.064 150.428L115.807 139.2c-.839-3.618-.458-8.801.21-11.365a1.12 1.12 0 0 0 .04-.032c15.124-12.226 22.792-23.247 22.792-32.755 0-.996-.041-1.993-.122-2.964l-.004-.045a38.283 38.283 0 0 1-.122-1.745c6.161-1.388 10.831-6.887 10.912-13.44a13.845 13.845 0 0 0-4.024-9.971 14.064 14.064 0 0 0-2.554-2.048c5.91-4.23 9.769-11.152 9.769-18.958 0-7.993-4.16-15.429-10.804-19.668a16.909 16.909 0 0 0 1.068-5.916c0-9.311-7.576-16.886-16.887-16.886-2.497 0-4.92.54-7.14 1.578A13.824 13.824 0 0 0 108.279 0c-3.933 0-7.626 1.68-10.216 4.487A16.826 16.826 0 0 0 86.593 0C80 0 74.087 3.846 71.332 9.644a13.907 13.907 0 0 0-2.543-.232c-7.655 0-13.883 6.228-13.883 13.883 0 2.223.53 4.39 1.528 6.333-5.816 4.002-9.429 10.707-9.429 17.879 0 7.33 3.659 13.821 9.245 17.744a14.167 14.167 0 0 0-1.908 1.618 13.844 13.844 0 0 0-4.024 9.971c.08 6.555 4.752 12.055 10.916 13.44a41.9 41.9 0 0 1-.126 1.81 33.6 33.6 0 0 0-.123 2.957c0 9.462 7.594 20.422 22.565 32.571.704 2.48 1.133 7.862.268 11.584l-45.886 11.227c-12.585 2.469-21.711 13.548-21.711 26.37v20.272a2.929 2.929 0 0 0 2.93 2.929h109.744a2.929 2.929 0 1 0 0-5.859H49.3v-12.822a2.929 2.929 0 1 0-5.859 0v12.822h-21.36v-17.342c0-10.046 7.165-18.723 17.037-20.632.047-.009.093-.02.14-.031l31.364-7.673c3.108 13.408 15.13 23.158 29.192 23.158 14.081 0 26.103-9.762 29.198-23.187l31.735 7.703c.045.011.09.021.135.029 9.872 1.91 17.038 10.587 17.038 20.633v17.342h-21.361v-12.822a2.929 2.929 0 1 0-5.859 0v12.822h-8.249a2.93 2.93 0 1 0 0 5.859h38.398a2.93 2.93 0 0 0 2.93-2.93v-20.271c-.001-12.823-9.128-23.902-21.715-26.371zm-51.509-8.298c-.251 5.708-4.973 10.274-10.741 10.274-5.769 0-10.49-4.566-10.741-10.273 1.02-3.052 1.236-7.057.987-10.585a25.561 25.561 0 0 0 9.803 1.963h.116a25.53 25.53 0 0 0 9.582-1.873c-.239 3.505-.019 7.469.994 10.494zm33.1-65.349c-.042 3.4-2.215 6.31-5.231 7.463-.065-4.232-.065-9.578.008-15.13a8.075 8.075 0 0 1 2.889 1.885 8.035 8.035 0 0 1 2.334 5.782zm-90.79-29.274c0-6.061 3.537-11.665 9.011-14.278a2.93 2.93 0 0 0 .925-4.594 8.01 8.01 0 0 1-2.035-5.34c0-4.424 3.6-8.024 8.024-8.024a7.97 7.97 0 0 1 3.17.65 2.926 2.926 0 0 0 3.987-1.925c1.296-4.791 5.674-8.137 10.645-8.137a11 11 0 0 1 9.268 5.048 2.93 2.93 0 0 0 5.122-.368 8.052 8.052 0 0 1 7.297-4.68 8 8 0 0 1 7.145 4.368 2.928 2.928 0 0 0 4.298 1.054 10.95 10.95 0 0 1 6.359-2.017c6.081 0 11.028 4.947 11.028 11.028a11.01 11.01 0 0 1-1.551 5.642 2.927 2.927 0 0 0 1.267 4.153c6.087 2.867 10.02 9.064 10.02 15.789 0 9.617-7.824 17.44-17.441 17.44a17.463 17.463 0 0 1-15.966-10.407 2.929 2.929 0 0 0-4.473-1.134 17.17 17.17 0 0 1-10.603 3.62 17.19 17.19 0 0 1-10.433-3.488 2.93 2.93 0 0 0-4.498 1.285c-2.334 6.056-8.265 10.125-14.757 10.125-8.717 0-15.81-7.092-15.81-15.81zm3.313 29.262a8.03 8.03 0 0 1 2.333-5.782 8.076 8.076 0 0 1 2.89-1.886c.074 5.558.074 10.897.01 15.132-3.019-1.152-5.192-4.064-5.233-7.464zm10.666 18.278c0-.871.034-1.691.098-2.41.128-1.303.22-3.38.28-5.924h8.285a2.93 2.93 0 1 0 0-5.859h-8.202c.023-3.705.005-7.794-.045-11.724.468.03.939.046 1.414.046 7.704 0 14.83-4.181 18.681-10.692a23.006 23.006 0 0 0 11.007 2.77c4.03 0 7.889-1.011 11.331-2.947a23.324 23.324 0 0 0 22.883 10.654 618.584 618.584 0 0 0-.046 11.893H89.257a2.929 2.929 0 1 0 0 5.859h43.355c.06 2.523.151 4.583.278 5.878.066.804.1 1.63.1 2.457 0 7.544-7.129 17.296-20.622 28.204a19.714 19.714 0 0 1-12.402 4.399h-.09a19.747 19.747 0 0 1-12.426-4.413c-13.48-10.9-20.606-20.648-20.606-28.19zm32.97 70.715c-11.337 0-21.025-7.874-23.5-18.691l7.29-1.784c1.662 7.416 8.299 12.975 16.21 12.975 7.912 0 14.551-5.562 16.21-12.981l7.294 1.77c-2.467 10.83-12.154 18.711-23.504 18.711z"></path>
      </mask>
      <path d="M162.064 150.428L115.807 139.2c-.839-3.618-.458-8.801.21-11.365a1.12 1.12 0 0 0 .04-.032c15.124-12.226 22.792-23.247 22.792-32.755 0-.996-.041-1.993-.122-2.964l-.004-.045a38.283 38.283 0 0 1-.122-1.745c6.161-1.388 10.831-6.887 10.912-13.44a13.845 13.845 0 0 0-4.024-9.971 14.064 14.064 0 0 0-2.554-2.048c5.91-4.23 9.769-11.152 9.769-18.958 0-7.993-4.16-15.429-10.804-19.668a16.909 16.909 0 0 0 1.068-5.916c0-9.311-7.576-16.886-16.887-16.886-2.497 0-4.92.54-7.14 1.578A13.824 13.824 0 0 0 108.279 0c-3.933 0-7.626 1.68-10.216 4.487A16.826 16.826 0 0 0 86.593 0C80 0 74.087 3.846 71.332 9.644a13.907 13.907 0 0 0-2.543-.232c-7.655 0-13.883 6.228-13.883 13.883 0 2.223.53 4.39 1.528 6.333-5.816 4.002-9.429 10.707-9.429 17.879 0 7.33 3.659 13.821 9.245 17.744a14.167 14.167 0 0 0-1.908 1.618 13.844 13.844 0 0 0-4.024 9.971c.08 6.555 4.752 12.055 10.916 13.44a41.9 41.9 0 0 1-.126 1.81 33.6 33.6 0 0 0-.123 2.957c0 9.462 7.594 20.422 22.565 32.571.704 2.48 1.133 7.862.268 11.584l-45.886 11.227c-12.585 2.469-21.711 13.548-21.711 26.37v20.272a2.929 2.929 0 0 0 2.93 2.929h109.744a2.929 2.929 0 1 0 0-5.859H49.3v-12.822a2.929 2.929 0 1 0-5.859 0v12.822h-21.36v-17.342c0-10.046 7.165-18.723 17.037-20.632.047-.009.093-.02.14-.031l31.364-7.673c3.108 13.408 15.13 23.158 29.192 23.158 14.081 0 26.103-9.762 29.198-23.187l31.735 7.703c.045.011.09.021.135.029 9.872 1.91 17.038 10.587 17.038 20.633v17.342h-21.361v-12.822a2.929 2.929 0 1 0-5.859 0v12.822h-8.249a2.93 2.93 0 1 0 0 5.859h38.398a2.93 2.93 0 0 0 2.93-2.93v-20.271c-.001-12.823-9.128-23.902-21.715-26.371zm-51.509-8.298c-.251 5.708-4.973 10.274-10.741 10.274-5.769 0-10.49-4.566-10.741-10.273 1.02-3.052 1.236-7.057.987-10.585a25.561 25.561 0 0 0 9.803 1.963h.116a25.53 25.53 0 0 0 9.582-1.873c-.239 3.505-.019 7.469.994 10.494zm33.1-65.349c-.042 3.4-2.215 6.31-5.231 7.463-.065-4.232-.065-9.578.008-15.13a8.075 8.075 0 0 1 2.889 1.885 8.035 8.035 0 0 1 2.334 5.782zm-90.79-29.274c0-6.061 3.537-11.665 9.011-14.278a2.93 2.93 0 0 0 .925-4.594 8.01 8.01 0 0 1-2.035-5.34c0-4.424 3.6-8.024 8.024-8.024a7.97 7.97 0 0 1 3.17.65 2.926 2.926 0 0 0 3.987-1.925c1.296-4.791 5.674-8.137 10.645-8.137a11 11 0 0 1 9.268 5.048 2.93 2.93 0 0 0 5.122-.368 8.052 8.052 0 0 1 7.297-4.68 8 8 0 0 1 7.145 4.368 2.928 2.928 0 0 0 4.298 1.054 10.95 10.95 0 0 1 6.359-2.017c6.081 0 11.028 4.947 11.028 11.028a11.01 11.01 0 0 1-1.551 5.642 2.927 2.927 0 0 0 1.267 4.153c6.087 2.867 10.02 9.064 10.02 15.789 0 9.617-7.824 17.44-17.441 17.44a17.463 17.463 0 0 1-15.966-10.407 2.929 2.929 0 0 0-4.473-1.134 17.17 17.17 0 0 1-10.603 3.62 17.19 17.19 0 0 1-10.433-3.488 2.93 2.93 0 0 0-4.498 1.285c-2.334 6.056-8.265 10.125-14.757 10.125-8.717 0-15.81-7.092-15.81-15.81zm3.313 29.262a8.03 8.03 0 0 1 2.333-5.782 8.076 8.076 0 0 1 2.89-1.886c.074 5.558.074 10.897.01 15.132-3.019-1.152-5.192-4.064-5.233-7.464zm10.666 18.278c0-.871.034-1.691.098-2.41.128-1.303.22-3.38.28-5.924h8.285a2.93 2.93 0 1 0 0-5.859h-8.202c.023-3.705.005-7.794-.045-11.724.468.03.939.046 1.414.046 7.704 0 14.83-4.181 18.681-10.692a23.006 23.006 0 0 0 11.007 2.77c4.03 0 7.889-1.011 11.331-2.947a23.324 23.324 0 0 0 22.883 10.654 618.584 618.584 0 0 0-.046 11.893H89.257a2.929 2.929 0 1 0 0 5.859h43.355c.06 2.523.151 4.583.278 5.878.066.804.1 1.63.1 2.457 0 7.544-7.129 17.296-20.622 28.204a19.714 19.714 0 0 1-12.402 4.399h-.09a19.747 19.747 0 0 1-12.426-4.413c-13.48-10.9-20.606-20.648-20.606-28.19zm32.97 70.715c-11.337 0-21.025-7.874-23.5-18.691l7.29-1.784c1.662 7.416 8.299 12.975 16.21 12.975 7.912 0 14.551-5.562 16.21-12.981l7.294 1.77c-2.467 10.83-12.154 18.711-23.504 18.711z"
        fill="#DCE6F0"></path>
      <path d="M162.064 150.428L115.807 139.2c-.839-3.618-.458-8.801.21-11.365a1.12 1.12 0 0 0 .04-.032c15.124-12.226 22.792-23.247 22.792-32.755 0-.996-.041-1.993-.122-2.964l-.004-.045a38.283 38.283 0 0 1-.122-1.745c6.161-1.388 10.831-6.887 10.912-13.44a13.845 13.845 0 0 0-4.024-9.971 14.064 14.064 0 0 0-2.554-2.048c5.91-4.23 9.769-11.152 9.769-18.958 0-7.993-4.16-15.429-10.804-19.668a16.909 16.909 0 0 0 1.068-5.916c0-9.311-7.576-16.886-16.887-16.886-2.497 0-4.92.54-7.14 1.578A13.824 13.824 0 0 0 108.279 0c-3.933 0-7.626 1.68-10.216 4.487A16.826 16.826 0 0 0 86.593 0C80 0 74.087 3.846 71.332 9.644a13.907 13.907 0 0 0-2.543-.232c-7.655 0-13.883 6.228-13.883 13.883 0 2.223.53 4.39 1.528 6.333-5.816 4.002-9.429 10.707-9.429 17.879 0 7.33 3.659 13.821 9.245 17.744a14.167 14.167 0 0 0-1.908 1.618 13.844 13.844 0 0 0-4.024 9.971c.08 6.555 4.752 12.055 10.916 13.44a41.9 41.9 0 0 1-.126 1.81 33.6 33.6 0 0 0-.123 2.957c0 9.462 7.594 20.422 22.565 32.571.704 2.48 1.133 7.862.268 11.584l-45.886 11.227c-12.585 2.469-21.711 13.548-21.711 26.37v20.272a2.929 2.929 0 0 0 2.93 2.929h109.744a2.929 2.929 0 1 0 0-5.859H49.3v-12.822a2.929 2.929 0 1 0-5.859 0v12.822h-21.36v-17.342c0-10.046 7.165-18.723 17.037-20.632.047-.009.093-.02.14-.031l31.364-7.673c3.108 13.408 15.13 23.158 29.192 23.158 14.081 0 26.103-9.762 29.198-23.187l31.735 7.703c.045.011.09.021.135.029 9.872 1.91 17.038 10.587 17.038 20.633v17.342h-21.361v-12.822a2.929 2.929 0 1 0-5.859 0v12.822h-8.249a2.93 2.93 0 1 0 0 5.859h38.398a2.93 2.93 0 0 0 2.93-2.93v-20.271c-.001-12.823-9.128-23.902-21.715-26.371zm-51.509-8.298c-.251 5.708-4.973 10.274-10.741 10.274-5.769 0-10.49-4.566-10.741-10.273 1.02-3.052 1.236-7.057.987-10.585a25.561 25.561 0 0 0 9.803 1.963h.116a25.53 25.53 0 0 0 9.582-1.873c-.239 3.505-.019 7.469.994 10.494zm33.1-65.349c-.042 3.4-2.215 6.31-5.231 7.463-.065-4.232-.065-9.578.008-15.13a8.075 8.075 0 0 1 2.889 1.885 8.035 8.035 0 0 1 2.334 5.782zm-90.79-29.274c0-6.061 3.537-11.665 9.011-14.278a2.93 2.93 0 0 0 .925-4.594 8.01 8.01 0 0 1-2.035-5.34c0-4.424 3.6-8.024 8.024-8.024a7.97 7.97 0 0 1 3.17.65 2.926 2.926 0 0 0 3.987-1.925c1.296-4.791 5.674-8.137 10.645-8.137a11 11 0 0 1 9.268 5.048 2.93 2.93 0 0 0 5.122-.368 8.052 8.052 0 0 1 7.297-4.68 8 8 0 0 1 7.145 4.368 2.928 2.928 0 0 0 4.298 1.054 10.95 10.95 0 0 1 6.359-2.017c6.081 0 11.028 4.947 11.028 11.028a11.01 11.01 0 0 1-1.551 5.642 2.927 2.927 0 0 0 1.267 4.153c6.087 2.867 10.02 9.064 10.02 15.789 0 9.617-7.824 17.44-17.441 17.44a17.463 17.463 0 0 1-15.966-10.407 2.929 2.929 0 0 0-4.473-1.134 17.17 17.17 0 0 1-10.603 3.62 17.19 17.19 0 0 1-10.433-3.488 2.93 2.93 0 0 0-4.498 1.285c-2.334 6.056-8.265 10.125-14.757 10.125-8.717 0-15.81-7.092-15.81-15.81zm3.313 29.262a8.03 8.03 0 0 1 2.333-5.782 8.076 8.076 0 0 1 2.89-1.886c.074 5.558.074 10.897.01 15.132-3.019-1.152-5.192-4.064-5.233-7.464zm10.666 18.278c0-.871.034-1.691.098-2.41.128-1.303.22-3.38.28-5.924h8.285a2.93 2.93 0 1 0 0-5.859h-8.202c.023-3.705.005-7.794-.045-11.724.468.03.939.046 1.414.046 7.704 0 14.83-4.181 18.681-10.692a23.006 23.006 0 0 0 11.007 2.77c4.03 0 7.889-1.011 11.331-2.947a23.324 23.324 0 0 0 22.883 10.654 618.584 618.584 0 0 0-.046 11.893H89.257a2.929 2.929 0 1 0 0 5.859h43.355c.06 2.523.151 4.583.278 5.878.066.804.1 1.63.1 2.457 0 7.544-7.129 17.296-20.622 28.204a19.714 19.714 0 0 1-12.402 4.399h-.09a19.747 19.747 0 0 1-12.426-4.413c-13.48-10.9-20.606-20.648-20.606-28.19zm32.97 70.715c-11.337 0-21.025-7.874-23.5-18.691l7.29-1.784c1.662 7.416 8.299 12.975 16.21 12.975 7.912 0 14.551-5.562 16.21-12.981l7.294 1.77c-2.467 10.83-12.154 18.711-23.504 18.711z"
        stroke="#DCE6F0" stroke-width="2" mask="url(#a)"></path>
      <path d="M116.351 98.481a3.429 3.429 0 0 0-3.429-3.429H86.994a3.429 3.429 0 1 0 0 6.859h25.928a3.43 3.43 0 0 0 3.429-3.43zm-7.251 8.288H90.984a3.429 3.429 0 1 0 0 6.859H109.1a3.429 3.429 0 1 0 0-6.859z" fill="#DCE6F0" stroke="#DCE6F0"></path>
    </g>
    <defs>
      <clipPath id="clip0">
        <path fill="#fff" d="M0 0h200v200H0z"></path>
      </clipPath>
    </defs>
  </symbol>
</svg>