<svg width="0" height="0" class="hidden">
  <symbol viewBox="0 0 18 18" fill="none" xmlns="http://www.w3.org/2000/svg" id="insta-svg">
    <path d="M13.127 0H4.872A4.878 4.878 0 0 0 0 4.872v8.256A4.878 4.878 0 0 0 4.872 18h8.256A4.878 4.878 0 0 0 18 13.128V4.872A4.878 4.878 0 0 0 13.127 0zM9 13.922A4.927 4.927 0 0 1 4.078 9 4.927 4.927 0 0 1 9 4.078 4.927 4.927 0 0 1 13.922 9 4.927 4.927 0 0 1 9 13.922zm5.04-8.683a1.456 1.456 0 0 1-1.455-1.454c0-.802.652-1.455 1.454-1.455.802 0 1.455.653 1.455 1.455s-.653 1.454-1.455 1.454z"
      fill="#706A6A"></path>
  </symbol>
    <symbol viewBox="0 0 18 16" fill="none" xmlns="http://www.w3.org/2000/svg" id="telegram-svg">
    <path d="M7.063 10.386l-.298 4.188c.426 0 .61-.183.832-.403l1.997-1.909 4.139 3.031c.758.423 1.293.2 1.498-.698l2.717-12.73C18.19.743 17.543.305 16.803.579L.835 6.693c-1.09.423-1.073 1.03-.185 1.305l4.082 1.27 9.483-5.933c.446-.296.852-.132.518.163l-7.67 6.888z"
      fill="#706A6A"></path>
    </symbol>
      <symbol viewBox="0 0 18 18" fill="none" xmlns="http://www.w3.org/2000/svg" id="facebook">
    <path d="M15.363 0H2.637A2.64 2.64 0 0 0 0 2.637v12.726A2.64 2.64 0 0 0 2.637 18h5.308v-6.363h-2.11V8.473h2.11V6.328a3.168 3.168 0 0 1 3.164-3.164h3.2v3.164h-3.2v2.145h3.2l-.528 3.164H11.11V18h4.254A2.64 2.64 0 0 0 18 15.363V2.637A2.64 2.64 0 0 0 15.363 0z"
      fill="#706A6A"></path>
  </symbol>
    <symbol viewBox="0 0 18 18" fill="none" xmlns="http://www.w3.org/2000/svg" id="phone-svg">
    <path d="M16.556 11.815c-1.102 0-2.184-.172-3.21-.511-.502-.172-1.12-.014-1.427.3l-2.024 1.528c-2.347-1.253-3.792-2.698-5.028-5.027L6.35 6.133c.385-.384.523-.946.357-1.474a10.235 10.235 0 0 1-.513-3.215C6.194.648 5.546 0 4.75 0H1.444C.648 0 0 .648 0 1.444 0 10.574 7.427 18 16.556 18c.796 0 1.444-.648 1.444-1.444v-3.297c0-.796-.648-1.444-1.444-1.444z"
      fill="#706A6A"></path>
  </symbol>
</svg>